<svg width="60" height="60" viewBox="0 0 60 60" fill="none" xmlns="http://www.w3.org/2000/svg">
<g clip-path="url(#clip0)">
<path d="M58.9337 11.3472C58.1563 10.4282 57.0676 9.86688 55.868 9.76668L13.6154 6.23865C12.4156 6.13846 11.2491 6.51146 10.33 7.28876C9.41469 8.06302 8.85419 9.14618 8.75083 10.34L7.90075 18.3152H4.50643C2.02159 18.3152 0 20.3368 0 22.8217V49.271C0 51.7559 2.02159 53.7775 4.50643 53.7775H46.9062C49.3912 53.7775 51.4128 51.7559 51.4128 49.271V44.9805L52.9173 45.1061C53.0442 45.1166 53.1705 45.1219 53.2956 45.1219C55.6122 45.1219 57.587 43.3396 57.7832 40.9902L59.9841 14.6326C60.0841 13.433 59.7111 12.2663 58.9337 11.3472ZM4.50643 20.659H46.9062C48.0987 20.659 49.069 21.6292 49.069 22.8217V25.2317H2.34374V22.8217C2.34374 21.6292 3.31393 20.659 4.50643 20.659ZM2.34374 27.5755H49.069V32.4375H2.34374V27.5755ZM46.9062 51.4337H4.50643C3.31393 51.4337 2.34374 50.4635 2.34374 49.271V34.7812H49.069V49.271C49.069 50.4635 48.0987 51.4337 46.9062 51.4337ZM57.6484 14.4375L55.4475 40.7951C55.3483 41.9835 54.3005 42.87 53.1123 42.7704L51.4128 42.6285V22.8217C51.4128 20.3368 49.3912 18.3152 46.9062 18.3152H10.2579L11.0827 10.5762C11.0837 10.5673 11.0845 10.5585 11.0852 10.5495C11.1844 9.3611 12.2316 8.4747 13.4204 8.57431L55.6731 12.1023C56.2488 12.1504 56.7714 12.4198 57.1444 12.8609C57.5174 13.302 57.6965 13.8618 57.6484 14.4375Z" fill="#292929"/>
<path d="M44.1647 38.2646H32.8864C32.2391 38.2646 31.7145 38.7893 31.7145 39.4365V46.7946C31.7145 47.4418 32.2391 47.9665 32.8864 47.9665H44.1647C44.8119 47.9665 45.3366 47.4418 45.3366 46.7946V39.4365C45.3366 38.7893 44.8119 38.2646 44.1647 38.2646ZM42.9928 45.6227H34.0582V40.6084H42.9928V45.6227Z" fill="#FF5500"/>
</g>
<defs>
<clipPath id="clip0">
<rect width="60" height="60" fill="white"/>
</clipPath>
</defs>
</svg>
